<mxfile host="app.diagrams.net" modified="2023-12-28T04:30:30.394Z" agent="Mozilla/5.0 (Windows NT 10.0; Win64; x64) AppleWebKit/537.36 (KHTML, like Gecko) Chrome/120.0.0.0 Safari/537.36 Edg/120.0.0.0" etag="MJNr22115IaNVkSWxEta" version="22.1.15" type="device">
  <diagram name="Page-1" id="TYJt8Yqv9K-PjIQL8Ez9">
    <mxGraphModel dx="699" dy="425" grid="1" gridSize="10" guides="1" tooltips="1" connect="1" arrows="1" fold="1" page="1" pageScale="1" pageWidth="850" pageHeight="1100" math="0" shadow="0">
      <root>
        <mxCell id="0" />
        <mxCell id="1" parent="0" />
        <mxCell id="y2WzNVrSFO6NF1J8-xCi-1" value="USER" style="rounded=0;whiteSpace=wrap;html=1;strokeWidth=0;" vertex="1" parent="1">
          <mxGeometry x="126" y="196" width="90" height="30" as="geometry" />
        </mxCell>
        <mxCell id="y2WzNVrSFO6NF1J8-xCi-2" value="CONTACT" style="rounded=0;whiteSpace=wrap;html=1;strokeWidth=0;" vertex="1" parent="1">
          <mxGeometry x="503" y="162" width="90" height="30" as="geometry" />
        </mxCell>
        <mxCell id="y2WzNVrSFO6NF1J8-xCi-3" value="userId" style="ellipse;whiteSpace=wrap;html=1;" vertex="1" parent="1">
          <mxGeometry x="10" y="120" width="50" height="30" as="geometry" />
        </mxCell>
        <mxCell id="y2WzNVrSFO6NF1J8-xCi-4" value="userPwd" style="ellipse;whiteSpace=wrap;html=1;" vertex="1" parent="1">
          <mxGeometry x="212" y="112" width="78" height="30" as="geometry" />
        </mxCell>
        <mxCell id="y2WzNVrSFO6NF1J8-xCi-5" value="userName" style="ellipse;whiteSpace=wrap;html=1;" vertex="1" parent="1">
          <mxGeometry x="68" y="116" width="66" height="30" as="geometry" />
        </mxCell>
        <mxCell id="y2WzNVrSFO6NF1J8-xCi-6" value="aboutUser" style="ellipse;whiteSpace=wrap;html=1;" vertex="1" parent="1">
          <mxGeometry x="5" y="204" width="65" height="26" as="geometry" />
        </mxCell>
        <mxCell id="y2WzNVrSFO6NF1J8-xCi-7" value="userRole" style="ellipse;whiteSpace=wrap;html=1;" vertex="1" parent="1">
          <mxGeometry x="2" y="166" width="50" height="30" as="geometry" />
        </mxCell>
        <mxCell id="y2WzNVrSFO6NF1J8-xCi-8" value="userImage" style="ellipse;whiteSpace=wrap;html=1;" vertex="1" parent="1">
          <mxGeometry x="256" y="160" width="64" height="30" as="geometry" />
        </mxCell>
        <mxCell id="y2WzNVrSFO6NF1J8-xCi-9" value="userEmail" style="ellipse;whiteSpace=wrap;html=1;" vertex="1" parent="1">
          <mxGeometry x="139" y="112" width="68" height="30" as="geometry" />
        </mxCell>
        <mxCell id="y2WzNVrSFO6NF1J8-xCi-10" value="userEnabled" style="ellipse;whiteSpace=wrap;html=1;" vertex="1" parent="1">
          <mxGeometry x="10" y="237" width="90" height="30" as="geometry" />
        </mxCell>
        <mxCell id="y2WzNVrSFO6NF1J8-xCi-11" value="" style="endArrow=none;html=1;rounded=0;exitX=0.652;exitY=0.044;exitDx=0;exitDy=0;exitPerimeter=0;" edge="1" parent="1" source="y2WzNVrSFO6NF1J8-xCi-1">
          <mxGeometry width="50" height="50" relative="1" as="geometry">
            <mxPoint x="190" y="192" as="sourcePoint" />
            <mxPoint x="240" y="142" as="targetPoint" />
          </mxGeometry>
        </mxCell>
        <mxCell id="y2WzNVrSFO6NF1J8-xCi-12" value="" style="endArrow=none;html=1;rounded=0;" edge="1" parent="1">
          <mxGeometry width="50" height="50" relative="1" as="geometry">
            <mxPoint x="173" y="198" as="sourcePoint" />
            <mxPoint x="172" y="145" as="targetPoint" />
          </mxGeometry>
        </mxCell>
        <mxCell id="y2WzNVrSFO6NF1J8-xCi-13" value="" style="endArrow=none;html=1;rounded=0;exitX=0.126;exitY=-0.089;exitDx=0;exitDy=0;exitPerimeter=0;" edge="1" parent="1" source="y2WzNVrSFO6NF1J8-xCi-1">
          <mxGeometry width="50" height="50" relative="1" as="geometry">
            <mxPoint x="82" y="212" as="sourcePoint" />
            <mxPoint x="110" y="150" as="targetPoint" />
          </mxGeometry>
        </mxCell>
        <mxCell id="y2WzNVrSFO6NF1J8-xCi-14" value="" style="endArrow=none;html=1;rounded=0;" edge="1" parent="1">
          <mxGeometry width="50" height="50" relative="1" as="geometry">
            <mxPoint x="218" y="215" as="sourcePoint" />
            <mxPoint x="270" y="190" as="targetPoint" />
          </mxGeometry>
        </mxCell>
        <mxCell id="y2WzNVrSFO6NF1J8-xCi-15" value="" style="endArrow=none;html=1;rounded=0;entryX=0;entryY=0.5;entryDx=0;entryDy=0;exitX=1;exitY=0.5;exitDx=0;exitDy=0;" edge="1" parent="1">
          <mxGeometry width="50" height="50" relative="1" as="geometry">
            <mxPoint x="69" y="217" as="sourcePoint" />
            <mxPoint x="125" y="211" as="targetPoint" />
          </mxGeometry>
        </mxCell>
        <mxCell id="y2WzNVrSFO6NF1J8-xCi-16" value="" style="endArrow=none;html=1;rounded=0;entryX=0;entryY=1;entryDx=0;entryDy=0;" edge="1" parent="1" target="y2WzNVrSFO6NF1J8-xCi-1">
          <mxGeometry width="50" height="50" relative="1" as="geometry">
            <mxPoint x="95" y="250" as="sourcePoint" />
            <mxPoint x="130" y="240" as="targetPoint" />
          </mxGeometry>
        </mxCell>
        <mxCell id="y2WzNVrSFO6NF1J8-xCi-17" value="" style="endArrow=none;html=1;rounded=0;" edge="1" parent="1">
          <mxGeometry width="50" height="50" relative="1" as="geometry">
            <mxPoint x="49" y="188" as="sourcePoint" />
            <mxPoint x="130" y="200" as="targetPoint" />
          </mxGeometry>
        </mxCell>
        <mxCell id="y2WzNVrSFO6NF1J8-xCi-18" value="" style="endArrow=none;html=1;rounded=0;exitX=1;exitY=1;exitDx=0;exitDy=0;" edge="1" parent="1" source="y2WzNVrSFO6NF1J8-xCi-3">
          <mxGeometry width="50" height="50" relative="1" as="geometry">
            <mxPoint x="58" y="183" as="sourcePoint" />
            <mxPoint x="130" y="200" as="targetPoint" />
          </mxGeometry>
        </mxCell>
        <mxCell id="y2WzNVrSFO6NF1J8-xCi-19" value="contactEmail" style="ellipse;whiteSpace=wrap;html=1;" vertex="1" parent="1">
          <mxGeometry x="513" y="88" width="80" height="24" as="geometry" />
        </mxCell>
        <mxCell id="y2WzNVrSFO6NF1J8-xCi-20" value="contactId" style="ellipse;whiteSpace=wrap;html=1;" vertex="1" parent="1">
          <mxGeometry x="419" y="97" width="80" height="24" as="geometry" />
        </mxCell>
        <mxCell id="y2WzNVrSFO6NF1J8-xCi-21" value="contactName" style="ellipse;whiteSpace=wrap;html=1;" vertex="1" parent="1">
          <mxGeometry x="617" y="131" width="80" height="24" as="geometry" />
        </mxCell>
        <mxCell id="y2WzNVrSFO6NF1J8-xCi-22" value="contactNickname" style="ellipse;whiteSpace=wrap;html=1;" vertex="1" parent="1">
          <mxGeometry x="530" y="246" width="110" height="24" as="geometry" />
        </mxCell>
        <mxCell id="y2WzNVrSFO6NF1J8-xCi-23" value="contactId" style="ellipse;whiteSpace=wrap;html=1;" vertex="1" parent="1">
          <mxGeometry x="617" y="223" width="80" height="24" as="geometry" />
        </mxCell>
        <mxCell id="y2WzNVrSFO6NF1J8-xCi-24" value="contactPhone" style="ellipse;whiteSpace=wrap;html=1;" vertex="1" parent="1">
          <mxGeometry x="622" y="170" width="80" height="24" as="geometry" />
        </mxCell>
        <mxCell id="y2WzNVrSFO6NF1J8-xCi-25" value="contactWork" style="ellipse;whiteSpace=wrap;html=1;" vertex="1" parent="1">
          <mxGeometry x="609" y="93" width="80" height="24" as="geometry" />
        </mxCell>
        <mxCell id="y2WzNVrSFO6NF1J8-xCi-27" value="contactImage" style="ellipse;whiteSpace=wrap;html=1;" vertex="1" parent="1">
          <mxGeometry x="448" y="266" width="80" height="24" as="geometry" />
        </mxCell>
        <mxCell id="y2WzNVrSFO6NF1J8-xCi-28" value="" style="endArrow=none;html=1;rounded=0;entryX=0;entryY=0;entryDx=0;entryDy=0;exitX=0.87;exitY=1.044;exitDx=0;exitDy=0;exitPerimeter=0;" edge="1" parent="1" source="y2WzNVrSFO6NF1J8-xCi-2" target="y2WzNVrSFO6NF1J8-xCi-23">
          <mxGeometry width="50" height="50" relative="1" as="geometry">
            <mxPoint x="564" y="212" as="sourcePoint" />
            <mxPoint x="614" y="162" as="targetPoint" />
          </mxGeometry>
        </mxCell>
        <mxCell id="y2WzNVrSFO6NF1J8-xCi-30" value="" style="endArrow=none;html=1;rounded=0;exitX=0;exitY=0.25;exitDx=0;exitDy=0;" edge="1" parent="1" source="y2WzNVrSFO6NF1J8-xCi-2">
          <mxGeometry width="50" height="50" relative="1" as="geometry">
            <mxPoint x="410" y="170" as="sourcePoint" />
            <mxPoint x="460" y="120" as="targetPoint" />
          </mxGeometry>
        </mxCell>
        <mxCell id="y2WzNVrSFO6NF1J8-xCi-31" value="" style="endArrow=none;html=1;rounded=0;exitX=0.321;exitY=-0.139;exitDx=0;exitDy=0;exitPerimeter=0;" edge="1" parent="1" source="y2WzNVrSFO6NF1J8-xCi-22">
          <mxGeometry width="50" height="50" relative="1" as="geometry">
            <mxPoint x="521" y="240" as="sourcePoint" />
            <mxPoint x="571" y="190" as="targetPoint" />
          </mxGeometry>
        </mxCell>
        <mxCell id="y2WzNVrSFO6NF1J8-xCi-32" value="" style="endArrow=none;html=1;rounded=0;entryX=0;entryY=0.5;entryDx=0;entryDy=0;" edge="1" parent="1" target="y2WzNVrSFO6NF1J8-xCi-24">
          <mxGeometry width="50" height="50" relative="1" as="geometry">
            <mxPoint x="584" y="190" as="sourcePoint" />
            <mxPoint x="634" y="140" as="targetPoint" />
          </mxGeometry>
        </mxCell>
        <mxCell id="y2WzNVrSFO6NF1J8-xCi-33" value="" style="endArrow=none;html=1;rounded=0;entryX=0.5;entryY=1;entryDx=0;entryDy=0;" edge="1" parent="1" target="y2WzNVrSFO6NF1J8-xCi-19">
          <mxGeometry width="50" height="50" relative="1" as="geometry">
            <mxPoint x="527" y="161" as="sourcePoint" />
            <mxPoint x="577" y="111" as="targetPoint" />
          </mxGeometry>
        </mxCell>
        <mxCell id="y2WzNVrSFO6NF1J8-xCi-34" value="" style="endArrow=none;html=1;rounded=0;" edge="1" parent="1">
          <mxGeometry width="50" height="50" relative="1" as="geometry">
            <mxPoint x="565" y="160" as="sourcePoint" />
            <mxPoint x="615" y="110" as="targetPoint" />
          </mxGeometry>
        </mxCell>
        <mxCell id="y2WzNVrSFO6NF1J8-xCi-35" value="" style="endArrow=none;html=1;rounded=0;entryX=0.25;entryY=1;entryDx=0;entryDy=0;" edge="1" parent="1" target="y2WzNVrSFO6NF1J8-xCi-2">
          <mxGeometry width="50" height="50" relative="1" as="geometry">
            <mxPoint x="480" y="260" as="sourcePoint" />
            <mxPoint x="507" y="204" as="targetPoint" />
          </mxGeometry>
        </mxCell>
        <mxCell id="y2WzNVrSFO6NF1J8-xCi-36" value="" style="endArrow=none;html=1;rounded=0;entryX=0;entryY=0;entryDx=0;entryDy=0;" edge="1" parent="1" target="y2WzNVrSFO6NF1J8-xCi-21">
          <mxGeometry width="50" height="50" relative="1" as="geometry">
            <mxPoint x="593" y="160" as="sourcePoint" />
            <mxPoint x="603" y="150" as="targetPoint" />
          </mxGeometry>
        </mxCell>
        <mxCell id="y2WzNVrSFO6NF1J8-xCi-37" value="has" style="rhombus;whiteSpace=wrap;html=1;" vertex="1" parent="1">
          <mxGeometry x="300" y="290" width="50" height="80" as="geometry" />
        </mxCell>
        <mxCell id="y2WzNVrSFO6NF1J8-xCi-39" value="" style="endArrow=none;html=1;rounded=0;exitX=0.652;exitY=0.044;exitDx=0;exitDy=0;exitPerimeter=0;entryX=0;entryY=0.75;entryDx=0;entryDy=0;" edge="1" parent="1" target="y2WzNVrSFO6NF1J8-xCi-2">
          <mxGeometry width="50" height="50" relative="1" as="geometry">
            <mxPoint x="352" y="329" as="sourcePoint" />
            <mxPoint x="407" y="274" as="targetPoint" />
          </mxGeometry>
        </mxCell>
        <mxCell id="y2WzNVrSFO6NF1J8-xCi-40" value="" style="endArrow=none;html=1;rounded=0;exitX=0.5;exitY=1;exitDx=0;exitDy=0;entryX=0;entryY=0.5;entryDx=0;entryDy=0;" edge="1" parent="1" source="y2WzNVrSFO6NF1J8-xCi-1" target="y2WzNVrSFO6NF1J8-xCi-37">
          <mxGeometry width="50" height="50" relative="1" as="geometry">
            <mxPoint x="205" y="261" as="sourcePoint" />
            <mxPoint x="260" y="206" as="targetPoint" />
          </mxGeometry>
        </mxCell>
        <mxCell id="y2WzNVrSFO6NF1J8-xCi-42" value="1" style="edgeLabel;html=1;align=center;verticalAlign=middle;resizable=0;points=[];" vertex="1" connectable="0" parent="y2WzNVrSFO6NF1J8-xCi-40">
          <mxGeometry x="0.0508" y="9" relative="1" as="geometry">
            <mxPoint as="offset" />
          </mxGeometry>
        </mxCell>
        <mxCell id="y2WzNVrSFO6NF1J8-xCi-44" value="n" style="text;html=1;align=center;verticalAlign=middle;resizable=0;points=[];autosize=1;strokeColor=none;fillColor=none;" vertex="1" parent="1">
          <mxGeometry x="400" y="238" width="30" height="30" as="geometry" />
        </mxCell>
      </root>
    </mxGraphModel>
  </diagram>
</mxfile>
